<mxfile host="Electron" modified="2024-07-09T13:04:14.613Z" agent="Mozilla/5.0 (X11; Linux x86_64) AppleWebKit/537.36 (KHTML, like Gecko) draw.io/22.1.16 Chrome/120.0.6099.109 Electron/28.1.0 Safari/537.36" etag="tS95o4W7OkbLcvShoXa1" version="22.1.16" type="device">
  <diagram name="Page-1" id="R57GkpWhcWK4TwupoZsG">
    <mxGraphModel dx="1785" dy="2095" grid="1" gridSize="10" guides="1" tooltips="1" connect="1" arrows="1" fold="1" page="1" pageScale="1" pageWidth="827" pageHeight="1169" math="0" shadow="0">
      <root>
        <mxCell id="0" />
        <mxCell id="1" parent="0" />
        <mxCell id="ClodR41BTh2640jMFe-s-1" value="" style="whiteSpace=wrap;html=1;fillColor=#FFFFFF;" parent="1" vertex="1">
          <mxGeometry x="40" y="280" width="1920" height="1080" as="geometry" />
        </mxCell>
        <mxCell id="ClodR41BTh2640jMFe-s-2" value="&lt;font color=&quot;#ed7100&quot; style=&quot;font-size: 72px;&quot;&gt;&lt;b style=&quot;&quot;&gt;AWS ECS&lt;/b&gt;&lt;/font&gt;" style="sketch=0;points=[[0,0,0],[0.25,0,0],[0.5,0,0],[0.75,0,0],[1,0,0],[0,1,0],[0.25,1,0],[0.5,1,0],[0.75,1,0],[1,1,0],[0,0.25,0],[0,0.5,0],[0,0.75,0],[1,0.25,0],[1,0.5,0],[1,0.75,0]];outlineConnect=0;fontColor=#232F3E;fillColor=#ED7100;strokeColor=#ffffff;dashed=0;verticalLabelPosition=bottom;verticalAlign=top;align=center;html=1;fontSize=12;fontStyle=0;aspect=fixed;shape=mxgraph.aws4.resourceIcon;resIcon=mxgraph.aws4.ecs;shadow=1;" parent="1" vertex="1">
          <mxGeometry x="875" y="360" width="250" height="250" as="geometry" />
        </mxCell>
        <mxCell id="ClodR41BTh2640jMFe-s-11" value="&lt;b style=&quot;&quot;&gt;&lt;font style=&quot;font-size: 36px;&quot;&gt;Image&lt;/font&gt;&lt;/b&gt;" style="image;sketch=0;aspect=fixed;html=1;points=[];align=center;fontSize=12;image=img/lib/mscae/Docker.svg;" parent="1" vertex="1">
          <mxGeometry x="310" y="940" width="365.85" height="300" as="geometry" />
        </mxCell>
        <mxCell id="ClodR41BTh2640jMFe-s-12" value="&lt;font color=&quot;#ed7100&quot; style=&quot;font-size: 72px;&quot;&gt;&lt;b&gt;AWS ECR&lt;/b&gt;&lt;/font&gt;" style="sketch=0;points=[[0,0,0],[0.25,0,0],[0.5,0,0],[0.75,0,0],[1,0,0],[0,1,0],[0.25,1,0],[0.5,1,0],[0.75,1,0],[1,1,0],[0,0.25,0],[0,0.5,0],[0,0.75,0],[1,0.25,0],[1,0.5,0],[1,0.75,0]];outlineConnect=0;fontColor=#232F3E;fillColor=#ED7100;strokeColor=#ffffff;dashed=0;verticalLabelPosition=bottom;verticalAlign=top;align=center;html=1;fontSize=12;fontStyle=0;aspect=fixed;shape=mxgraph.aws4.resourceIcon;resIcon=mxgraph.aws4.ecr;" parent="1" vertex="1">
          <mxGeometry x="1390" y="940" width="250" height="250" as="geometry" />
        </mxCell>
        <mxCell id="ClodR41BTh2640jMFe-s-13" value="&lt;font color=&quot;#00c4c4&quot; style=&quot;font-size: 36px;&quot;&gt;&lt;b style=&quot;&quot;&gt;Dockerfile&lt;/b&gt;&lt;/font&gt;" style="verticalLabelPosition=bottom;html=1;verticalAlign=top;align=center;strokeColor=none;fillColor=#00BEF2;shape=mxgraph.azure.cloud_services_configuration_file;pointerEvents=1;" parent="1" vertex="1">
          <mxGeometry x="130" y="670" width="100" height="130" as="geometry" />
        </mxCell>
        <mxCell id="ClodR41BTh2640jMFe-s-24" value="&lt;font style=&quot;font-size: 36px;&quot;&gt;&lt;b&gt;BUILD&lt;/b&gt;&lt;/font&gt;" style="edgeStyle=orthogonalEdgeStyle;rounded=0;orthogonalLoop=1;jettySize=auto;html=1;entryX=0;entryY=0.557;entryDx=0;entryDy=0;entryPerimeter=0;shape=flexArrow;endWidth=51.11111111111111;endSize=17.8;width=6.666666666666667;fillColor=#000000;" parent="1" target="ClodR41BTh2640jMFe-s-11" edge="1">
          <mxGeometry x="-0.3838" relative="1" as="geometry">
            <mxPoint x="180" y="880" as="sourcePoint" />
            <mxPoint x="226.70735000000013" y="1203.8000000000002" as="targetPoint" />
            <Array as="points">
              <mxPoint x="180" y="1107" />
            </Array>
            <mxPoint as="offset" />
          </mxGeometry>
        </mxCell>
        <mxCell id="ClodR41BTh2640jMFe-s-26" value="&lt;font style=&quot;font-size: 36px;&quot;&gt;&lt;b&gt;PULL&lt;/b&gt;&lt;/font&gt;" style="edgeStyle=orthogonalEdgeStyle;rounded=0;orthogonalLoop=1;jettySize=auto;html=1;shape=flexArrow;fillColor=#000000;endWidth=51.11111111111111;endSize=18.866666666666667;width=6.666666666666667;" parent="1" edge="1">
          <mxGeometry x="-0.0389" y="51" relative="1" as="geometry">
            <mxPoint x="675.85" y="1110" as="sourcePoint" />
            <mxPoint x="1370" y="1111" as="targetPoint" />
            <mxPoint x="-4" y="1" as="offset" />
          </mxGeometry>
        </mxCell>
        <mxCell id="ClodR41BTh2640jMFe-s-29" value="&lt;font style=&quot;font-size: 36px;&quot;&gt;&lt;b&gt;PUSH&lt;/b&gt;&lt;/font&gt;" style="text;html=1;strokeColor=none;fillColor=none;align=center;verticalAlign=middle;whiteSpace=wrap;rounded=0;" parent="1" vertex="1">
          <mxGeometry x="980" y="1150" width="60" height="30" as="geometry" />
        </mxCell>
        <mxCell id="ClodR41BTh2640jMFe-s-31" value="&lt;font style=&quot;font-size: 36px;&quot;&gt;&lt;b&gt;DEPLOY&lt;/b&gt;&lt;/font&gt;" style="edgeStyle=orthogonalEdgeStyle;rounded=0;orthogonalLoop=1;jettySize=auto;html=1;shape=flexArrow;fillColor=#000000;endWidth=46.66666666666667;endSize=20;" parent="1" edge="1">
          <mxGeometry x="-0.3907" relative="1" as="geometry">
            <mxPoint x="1515" y="900" as="sourcePoint" />
            <mxPoint x="1170" y="510" as="targetPoint" />
            <Array as="points">
              <mxPoint x="1515" y="510" />
              <mxPoint x="1160" y="510" />
            </Array>
            <mxPoint as="offset" />
          </mxGeometry>
        </mxCell>
        <mxCell id="ClodR41BTh2640jMFe-s-33" value="&lt;font style=&quot;font-size: 48px;&quot;&gt;&lt;b&gt;EC2&lt;/b&gt;&lt;/font&gt;" style="sketch=0;points=[[0,0,0],[0.25,0,0],[0.5,0,0],[0.75,0,0],[1,0,0],[0,1,0],[0.25,1,0],[0.5,1,0],[0.75,1,0],[1,1,0],[0,0.25,0],[0,0.5,0],[0,0.75,0],[1,0.25,0],[1,0.5,0],[1,0.75,0]];outlineConnect=0;fontColor=#232F3E;fillColor=#ED7100;strokeColor=#ffffff;dashed=0;verticalLabelPosition=bottom;verticalAlign=top;align=center;html=1;fontSize=12;fontStyle=0;aspect=fixed;shape=mxgraph.aws4.resourceIcon;resIcon=mxgraph.aws4.ec2;" parent="1" vertex="1">
          <mxGeometry x="400" y="400" width="160" height="160" as="geometry" />
        </mxCell>
      </root>
    </mxGraphModel>
  </diagram>
</mxfile>
